<svg xmlns="http://www.w3.org/2000/svg" fill="none" viewBox="0 0 161 33"><g fill="#FC4C00"><path d="M15.455 20.264 1.947.003h6.087l7.42 11.089L22.876.002h7.254v28.391h-5.42V6.34l-9.254 13.925Zm-9.342 8.171H.693v-6.337l5.42-8.145v14.482Zm31.352 0V.003h5.42v21.095L56.892.003h6.337v28.432h-5.253V7.68L44.052 28.435h-6.587Zm66.609 0V.003h5.42v21.095L123.502.003h6.336v28.432h-5.253V7.849L110.83 28.435h-6.756ZM147.856.003c7.739-.123 11.568 4.254 12.838 6.67l-4.198 2.28c-2.064-4.16-6.306-4.777-8.64-4.65-3.399.183-8.927 2.669-8.927 10.073 0 7.403 6.088 9.473 9.132 9.582 4.881 0 7.631-2.932 8.41-4.53l4.223 2.382c-3.473 5.831-9.275 6.57-12.633 6.57-10.115 0-14.25-8.435-14.25-14.004 0-8.804 6.388-14.373 14.045-14.373Z"/><path fill-rule="evenodd" d="M72.734 32.52v-4.202h21.803v4.16h5.461v-8.62h-4.585V.003H74.067c-.041 21.053-3.21 23.855-4.085 23.855h-2.751v8.662h5.503ZM90.077 4.422H79.153c-.25 13.174-2.418 18.769-3.335 19.436h14.257V4.422Z" clip-rule="evenodd"/></g></svg>